<svg viewBox="0 0 24 24" xmlns="http://www.w3.org/2000/svg" fill="#009EE3"><path d="M11.115 16.479a.93.927 0 0 1-.939-.886c-.002-.042-.006-.155-.103-.155-.04 0-.074.023-.113.059-.112.103-.254.206-.46.206a.816.814 0 0 1-.305-.066c-.535-.214-.542-.578-.521-.725.006-.038.007-.08-.02-.11l-.032-.03h-.034c-.027 0-.055.012-.093.039a.788.786 0 0 1-.454.16.7.699 0 0 1-.253-.05c-.708-.27-.65-.928-.617-1.126.005-.041-.005-.072-.03-.092l-.05-.04-.047.043a.728.726 0 0 1-.505.203.73.728 0 0 1-.732-.725c0-.4.328-.722.732-.722.364 0 .675.27.721.63l.026.195.11-.165c.01-.018.307-.46.852-.46.102 0 .21.016.316.05.434.13.508.52.519.68.008.094.075.1.09.1.037 0 .064-.024.083-.045a.746.744 0 0 1 .54-.225c.128 0 .263.03.402.09.69.293.379 1.158.374 1.167-.058.144-.061.207-.005.244l.027.013h.02c.03 0 .07-.014.134-.035.093-.032.235-.08.367-.08a.944.942 0 0 1 .94.93.936.934 0 0 1-.94.928zm7.302-4.171c-1.138-.98-3.768-3.24-4.481-3.77-.406-.302-.685-.462-.928-.533a1.559 1.554 0 0 0-.456-.07c-.182 0-.376.032-.58.095-.46.145-.918.505-1.362.854l-.023.018c-.414.324-.84.66-1.164.73a1.986 1.98 0 0 1-.43.049c-.362 0-.687-.104-.81-.258-.02-.025-.007-.066.04-.125l.008-.008 1-1.067c.783-.774 1.525-1.506 3.23-1.545h.085c1.062 0 2.12.469 2.24.524a7.03 7.03 0 0 0 3.056.724c1.076 0 2.188-.263 3.354-.795a9.135 9.11 0 0 0-.405-.317c-1.025.44-2.003.66-2.946.66-.962 0-1.925-.229-2.858-.68-.05-.022-1.22-.567-2.44-.57-.032 0-.065 0-.096.002-1.434.033-2.24.536-2.782.976-.528.013-.982.138-1.388.25-.361.1-.673.186-.979.185-.125 0-.35-.01-.37-.012-.35-.01-2.115-.437-3.518-.962-.143.1-.28.203-.415.31 1.466.593 3.25 1.053 3.812 1.089.157.01.323.027.491.027.372 0 .744-.103 1.104-.203.213-.059.446-.123.692-.17l-.196.194-1.017 1.087c-.08.08-.254.294-.14.557a.705.703 0 0 0 .268.292c.243.162.677.27 1.08.271.152 0 .297-.015.43-.044.427-.095.874-.448 1.349-.82.377-.296.913-.672 1.323-.782a1.494 1.49 0 0 1 .37-.05.611.61 0 0 1 .095.005c.27.034.533.125 1.003.472.835.62 4.531 3.815 4.566 3.846.002.002.238.203.003.35-.11.07-.3.176-.44.24-.047.02-.09.043-.13.064-.092-.047-.197-.107-.311-.182a.856.854 0 0 1-.365-.722.868.866 0 0 1 .868-.863c.479 0 .868.387.868.863 0 .428-.31.78-.718.85l-.15.025v.064c0 .034-.012.067-.035.093l-.01.01a1.233 1.23 0 0 1-1.018.423 1.285 1.282 0 0 1-.95-.41c-.046-.051-.06-.118-.039-.18l.013-.038a.333.332 0 0 0-.1-.363l-.045-.04h-.059c-.06 0-.125.027-.19.08l-.134.11a1.597 1.594 0 0 1-1.05.393c-.456 0-.824-.183-.984-.486l-.018-.035c-.047-.098-.052-.224-.015-.365l.081-.303a.526.525 0 0 0-.256-.58.53.528 0 0 0-.632.128l-.053.063c-.156.19-.36.438-.567.63-.448.413-.919.728-1.4.938-.439.19-.884.282-1.32.274a2.91 2.9 0 0 1-1.042-.227l.07.135a3.46 3.45 0 0 0 2.213 1.764c.269.066.541.098.81.098a5.1 5.09 0 0 0 2.193-.5c.875-.414 1.7-.978 2.378-1.579.034-.03.06-.053.08-.07h.034c.036 0 .08.016.14.072a2.036 2.03 0 0 0 1.517.653 1.94 1.934 0 0 0 1.576-.807l.035.05c.34.484 1.002.82 1.748.82.26 0 .524-.042.784-.127.34-.11.66-.273.967-.487a2.534 2.528 0 0 0 .97-1.396 2.17 2.166 0 0 0-.964-2.222zm-.548-1.28c-.2 0-.363.16-.363.36 0 .2.162.36.363.36a.362.36 0 0 0 .363-.36c0-.2-.162-.36-.363-.36zM3.6 15.65c.677.306 1.4.45 2.126.45.679 0 1.349-.126 1.99-.374a4.93 4.91 0 0 0 2.367-2.146l.03-.058a5.55 5.54 0 0 0 .546-2.392c0-1.747-.834-3.32-2.29-4.32a9.12 9.096 0 0 0-4.63-1.127H3.6v9.967zm2.145-9.35c.706 0 1.378.144 1.999.429.98.45 1.597 1.397 1.597 2.457 0 1.042-.6 1.977-1.554 2.428a4.11 4.1 0 0 1-1.92.449H4.8V6.3h.945z"/></svg>
